<?xml version="1.0" encoding="UTF-8" standalone="no"?>
<!-- Created with Inkscape (http://www.inkscape.org/) -->

<svg
   width="30.691618mm"
   height="30.69162mm"
   viewBox="0 0 30.691618 30.69162"
   version="1.1"
   id="svg1"
   xmlns="http://www.w3.org/2000/svg"
   xmlns:svg="http://www.w3.org/2000/svg">
  <defs
     id="defs1" />
  <g
     id="layer1"
     transform="translate(-105,-148.57302)">
    <g
       transform="matrix(0.264583,0,0,0.264583,105,148.573)"
       id="g2">
      <rect
         x="0"
         y="0"
         width="116"
         height="116"
         style="fill:#ffffff;stroke:none"
         id="rect1" />
      <g
         style="fill:#000000;stroke:none"
         id="g1">
        <path
           d="M 91.6,100 H 88.4 C 88.1791,100 88,99.8209 88,99.6 V 96 h 3.6 c 0.2209,0 0.4,0.1791 0.4,0.4 v 3.2 c 0,0.2209 -0.1791,0.4 -0.4,0.4 z m -16,0 H 72.4 C 72.1791,100 72,99.8209 72,99.6 V 92.4 C 72,92.1791 72.1791,92 72.4,92 h 3.2 C 75.8209,92 76,91.8209 76,91.6 V 84.4 C 76,84.1791 76.1791,84 76.4,84 H 80 v 7.6 c 0,0.2209 0.1791,0.4 0.4,0.4 h 7.2 c 0.2209,0 0.4,0.1791 0.4,0.4 V 96 H 76.4 C 76.1791,96 76,96.1791 76,96.4 v 3.2 c 0,0.2209 -0.1791,0.4 -0.4,0.4 z m -16,0 H 56.4 C 56.1791,100 56,99.8209 56,99.6 V 92.4 C 56,92.1791 55.8209,92 55.6,92 H 52.4 C 52.1791,92 52,92.1791 52,92.4 v 7.2 c 0,0.2209 -0.1791,0.4 -0.4,0.4 H 48.4 C 48.1791,100 48,99.8209 48,99.6 V 84.4 C 48,84.1791 48.1791,84 48.4,84 h 3.2 C 51.8209,84 52,83.8209 52,83.6 V 76.4 C 52,76.1791 52.1791,76 52.4,76 h 3.2 c 0.2209,0 0.4,0.1791 0.4,0.4 v 3.2 c 0,0.2209 0.1791,0.4 0.4,0.4 H 60 v 4 H 56.4 C 56.1791,84 56,84.1791 56,84.4 v 3.2 c 0,0.2209 0.1791,0.4 0.4,0.4 H 60 v 3.6 c 0,0.2209 0.1791,0.4 0.4,0.4 H 64 v 3.6 C 64,95.8209 63.8209,96 63.6,96 H 60.4 C 60.1791,96 60,96.1791 60,96.4 v 3.2 c 0,0.2209 -0.1791,0.4 -0.4,0.4 z m -16,0 H 16.4 C 16.1791,100 16,99.8209 16,99.6 V 72.4 C 16,72.1791 16.1791,72 16.4,72 h 27.2 c 0.2209,0 0.4,0.1791 0.4,0.4 v 27.2 c 0,0.2209 -0.1791,0.4 -0.4,0.4 z m 56,-4 H 96.4 C 96.1791,96 96,95.8209 96,95.6 V 92.4 C 96,92.1791 96.1791,92 96.4,92 h 3.2 c 0.2209,0 0.4,0.1791 0.4,0.4 v 3.2 c 0,0.2209 -0.1791,0.4 -0.4,0.4 z M 40,95.6 V 76.4 C 40,76.1791 39.8209,76 39.6,76 H 20.4 C 20.1791,76 20,76.1791 20,76.4 v 19.2 c 0,0.2209 0.1791,0.4 0.4,0.4 H 39.6 C 39.8209,96 40,95.8209 40,95.6 Z M 67.6,92 H 64 V 88.4 C 64,88.1791 63.8209,88 63.6,88 H 60 v -4 h 8 v 7.6 c 0,0.2209 -0.1791,0.4 -0.4,0.4 z m -32,0 H 24.4 C 24.1791,92 24,91.8209 24,91.6 V 80.4 C 24,80.1791 24.1791,80 24.4,80 h 11.2 c 0.2209,0 0.4,0.1791 0.4,0.4 v 11.2 c 0,0.2209 -0.1791,0.4 -0.4,0.4 z m 56,-4 H 88.4 C 88.1791,88 88,87.8209 88,87.6 V 76.4 C 88,76.1791 88.1791,76 88.4,76 h 7.2 c 0.2209,0 0.4,0.1791 0.4,0.4 V 80 H 92.4 C 92.1791,80 92,80.1791 92,80.4 v 7.2 c 0,0.2209 -0.1791,0.4 -0.4,0.4 z m 8,-4 H 96.4 C 96.1791,84 96,83.8209 96,83.6 V 80 h 3.6 c 0.2209,0 0.4,0.1791 0.4,0.4 v 3.2 c 0,0.2209 -0.1791,0.4 -0.4,0.4 z m -16,0 H 80 V 80.4 C 80,80.1791 80.1791,80 80.4,80 h 3.2 c 0.2209,0 0.4,0.1791 0.4,0.4 v 3.2 c 0,0.2209 -0.1791,0.4 -0.4,0.4 z m -12,0 H 68 v -4 h 3.6 c 0.2209,0 0.4,0.1791 0.4,0.4 v 3.2 c 0,0.2209 -0.1791,0.4 -0.4,0.4 z m -4,-4 H 60 V 76.4 C 60,76.1791 60.1791,76 60.4,76 H 68 v 4 z m 16,-4 H 80.4 C 80.1791,76 80,75.8209 80,75.6 V 72.4 C 80,72.1791 79.8209,72 79.6,72 H 76.4 C 76.1791,72 76,71.8209 76,71.6 V 68.4 C 76,68.1791 75.8209,68 75.6,68 H 68.4 C 68.1791,68 68,68.1791 68,68.4 V 72 H 64.4 C 64.1791,72 64,71.8209 64,71.6 V 68.4 C 64,68.1791 63.8209,68 63.6,68 H 56 v -8 h 4 v 3.6 c 0,0.2209 0.1791,0.4 0.4,0.4 h 3.2 C 63.8209,64 64,63.8209 64,63.6 V 60 h 3.6 C 67.8209,60 68,59.8209 68,59.6 V 56.4 C 68,56.1791 68.1791,56 68.4,56 h 3.2 C 71.8209,56 72,55.8209 72,55.6 V 52 h 3.6 c 0.2209,0 0.4,0.1791 0.4,0.4 V 60 H 72.4 C 72.1791,60 72,60.1791 72,60.4 v 3.2 c 0,0.2209 0.1791,0.4 0.4,0.4 h 3.2 C 75.8209,64 76,63.8209 76,63.6 V 60 h 11.6 c 0.2209,0 0.4,0.1791 0.4,0.4 v 3.2 C 88,63.8209 87.8209,64 87.6,64 H 80.4 C 80.1791,64 80,64.1791 80,64.4 v 3.2 c 0,0.2209 0.1791,0.4 0.4,0.4 h 3.2 c 0.2209,0 0.4,0.1791 0.4,0.4 v 7.2 c 0,0.2209 -0.1791,0.4 -0.4,0.4 z m -12,0 H 68 v -4 h 3.6 c 0.2209,0 0.4,0.1791 0.4,0.4 v 3.2 c 0,0.2209 -0.1791,0.4 -0.4,0.4 z m 24,-4 H 88.4 C 88.1791,72 88,71.8209 88,71.6 V 68.4 C 88,68.1791 88.1791,68 88.4,68 h 3.2 C 91.8209,68 92,67.8209 92,67.6 V 56 h 3.6 C 95.8209,56 96,55.8209 96,55.6 V 48.4 C 96,48.1791 96.1791,48 96.4,48 h 3.2 c 0.2209,0 0.4,0.1791 0.4,0.4 v 11.2 c 0,0.2209 -0.1791,0.4 -0.4,0.4 H 96.4 C 96.1791,60 96,60.1791 96,60.4 v 11.2 c 0,0.2209 -0.1791,0.4 -0.4,0.4 z m -40,0 H 48.4 C 48.1791,72 48,71.8209 48,71.6 V 68.4 C 48,68.1791 47.8209,68 47.6,68 H 40.4 C 40.1791,68 40,67.8209 40,67.6 V 64.4 C 40,64.1791 40.1791,64 40.4,64 h 3.2 C 43.8209,64 44,63.8209 44,63.6 V 60 h 3.6 c 0.2209,0 0.4,0.1791 0.4,0.4 v 3.2 c 0,0.2209 0.1791,0.4 0.4,0.4 h 3.2 c 0.2209,0 0.4,0.1791 0.4,0.4 v 3.2 c 0,0.2209 0.1791,0.4 0.4,0.4 H 56 v 3.6 c 0,0.2209 -0.1791,0.4 -0.4,0.4 z m -36,-4 H 16.4 C 16.1791,68 16,67.8209 16,67.6 V 48.4 C 16,48.1791 16.1791,48 16.4,48 h 15.2 c 0.2209,0 0.4,0.1791 0.4,0.4 v 3.2 c 0,0.2209 0.1791,0.4 0.4,0.4 H 40 v 3.6 c 0,0.2209 0.1791,0.4 0.4,0.4 h 3.2 c 0.2209,0 0.4,0.1791 0.4,0.4 V 60 H 36 V 56.4 C 36,56.1791 35.8209,56 35.6,56 H 32.4 C 32.1791,56 32,56.1791 32,56.4 v 3.2 c 0,0.2209 0.1791,0.4 0.4,0.4 H 36 v 3.6 C 36,63.8209 35.8209,64 35.6,64 H 28.4 C 28.1791,64 28,63.8209 28,63.6 V 60.4 C 28,60.1791 27.8209,60 27.6,60 H 24.4 C 24.1791,60 24,59.8209 24,59.6 V 56.4 C 24,56.1791 23.8209,56 23.6,56 H 20.4 C 20.1791,56 20,56.1791 20,56.4 v 11.2 c 0,0.2209 -0.1791,0.4 -0.4,0.4 z m 44,-8 H 60 V 56.4 C 60,56.1791 59.8209,56 59.6,56 H 56.4 C 56.1791,56 56,56.1791 56,56.4 V 60 H 52.4 C 52.1791,60 52,59.8209 52,59.6 V 56.4 C 52,56.1791 51.8209,56 51.6,56 H 48.4 C 48.1791,56 48,55.8209 48,55.6 V 48.4 C 48,48.1791 48.1791,48 48.4,48 h 3.2 c 0.2209,0 0.4,0.1791 0.4,0.4 v 3.2 c 0,0.2209 0.1791,0.4 0.4,0.4 h 3.2 C 55.8209,52 56,51.8209 56,51.6 V 48.4 C 56,48.1791 56.1791,48 56.4,48 H 60 v 3.6 c 0,0.2209 0.1791,0.4 0.4,0.4 h 3.2 c 0.2209,0 0.4,0.1791 0.4,0.4 V 60 Z m 28,-4 H 80.4 C 80.1791,56 80,55.8209 80,55.6 V 48.4 C 80,48.1791 80.1791,48 80.4,48 h 11.2 c 0.2209,0 0.4,0.1791 0.4,0.4 V 56 Z m -20,-4 H 68.4 C 68.1791,52 68,51.8209 68,51.6 V 48 h 3.6 c 0.2209,0 0.4,0.1791 0.4,0.4 V 52 Z m -28,0 H 40 V 48.4 C 40,48.1791 40.1791,48 40.4,48 h 3.2 c 0.2209,0 0.4,0.1791 0.4,0.4 v 3.2 c 0,0.2209 -0.1791,0.4 -0.4,0.4 z m 24,-4 H 60 v -4 h 3.6 C 63.8209,44 64,43.8209 64,43.6 V 40.4 C 64,40.1791 64.1791,40 64.4,40 h 3.2 c 0.2209,0 0.4,0.1791 0.4,0.4 V 48 Z m 32,-4 H 72.4 C 72.1791,44 72,43.8209 72,43.6 V 16.4 C 72,16.1791 72.1791,16 72.4,16 h 27.2 c 0.2209,0 0.4,0.1791 0.4,0.4 v 27.2 c 0,0.2209 -0.1791,0.4 -0.4,0.4 z m -40,0 H 56.4 C 56.1791,44 56,43.8209 56,43.6 V 40 h 3.6 c 0.2209,0 0.4,0.1791 0.4,0.4 V 44 Z m -8,0 H 48.4 C 48.1791,44 48,43.8209 48,43.6 V 40.4 C 48,40.1791 48.1791,40 48.4,40 H 52 v 3.6 c 0,0.2209 -0.1791,0.4 -0.4,0.4 z m -8,0 H 16.4 C 16.1791,44 16,43.8209 16,43.6 V 16.4 C 16,16.1791 16.1791,16 16.4,16 h 27.2 c 0.2209,0 0.4,0.1791 0.4,0.4 V 43.6 C 44,43.8209 43.8209,44 43.6,44 Z M 96,39.6 V 20.4 C 96,20.1791 95.8209,20 95.6,20 H 76.4 C 76.1791,20 76,20.1791 76,20.4 v 19.2 c 0,0.2209 0.1791,0.4 0.4,0.4 H 95.6 C 95.8209,40 96,39.8209 96,39.6 Z M 55.6,40 H 52 V 36.4 C 52,36.1791 51.8209,36 51.6,36 H 48.4 C 48.1791,36 48,35.8209 48,35.6 V 24.4 C 48,24.1791 48.1791,24 48.4,24 H 52 v 7.6 c 0,0.2209 0.1791,0.4 0.4,0.4 H 56 v 8 z M 40,39.6 V 20.4 C 40,20.1791 39.8209,20 39.6,20 H 20.4 C 20.1791,20 20,20.1791 20,20.4 v 19.2 c 0,0.2209 0.1791,0.4 0.4,0.4 H 39.6 C 39.8209,40 40,39.8209 40,39.6 Z M 91.6,36 H 80.4 C 80.1791,36 80,35.8209 80,35.6 V 24.4 C 80,24.1791 80.1791,24 80.4,24 h 11.2 c 0.2209,0 0.4,0.1791 0.4,0.4 v 11.2 c 0,0.2209 -0.1791,0.4 -0.4,0.4 z m -24,0 H 64.4 C 64.1791,36 64,35.8209 64,35.6 V 32.4 C 64,32.1791 64.1791,32 64.4,32 h 3.2 c 0.2209,0 0.4,0.1791 0.4,0.4 v 3.2 c 0,0.2209 -0.1791,0.4 -0.4,0.4 z m -32,0 H 24.4 C 24.1791,36 24,35.8209 24,35.6 V 24.4 C 24,24.1791 24.1791,24 24.4,24 h 11.2 c 0.2209,0 0.4,0.1791 0.4,0.4 v 11.2 c 0,0.2209 -0.1791,0.4 -0.4,0.4 z m 24,-4 H 56 v -8 h 3.6 C 59.8209,24 60,23.8209 60,23.6 V 20.4 C 60,20.1791 59.8209,20 59.6,20 H 56.4 C 56.1791,20 56,20.1791 56,20.4 V 24 H 52 V 20.4 C 52,20.1791 51.8209,20 51.6,20 H 48.4 C 48.1791,20 48,19.8209 48,19.6 V 16.4 C 48,16.1791 48.1791,16 48.4,16 h 15.2 c 0.2209,0 0.4,0.1791 0.4,0.4 V 27.6 C 64,27.8209 63.8209,28 63.6,28 H 60.4 C 60.1791,28 60,28.1791 60,28.4 v 3.2 c 0,0.2209 -0.1791,0.4 -0.4,0.4 z"
           id="path1" />
      </g>
    </g>
  </g>
</svg>
